<svg width="1440" height="900" viewBox="0 0 1440 900" fill="none" xmlns="http://www.w3.org/2000/svg">
<g clip-path="url(#clip0)">
<rect width="1440" height="900" fill="#FEF6E6"/>
<path fill-rule="evenodd" clip-rule="evenodd" d="M695.451 -10.5083C783.063 45.4912 830.952 155.618 841.585 259.052C851.328 353.827 756.499 429.742 750.482 524.826C744.457 620.029 830.895 707.888 807.331 800.325C782.236 898.765 707.476 981.973 620.543 1034.54C530.779 1088.81 418.526 1124.69 317.485 1096.51C218.389 1068.87 183.736 943.294 96.7064 888.43C6.37293 831.483 -135.653 860.695 -196.155 772.703C-255.419 686.512 -220.413 565.706 -194.954 464.252C-172.122 373.272 -115.317 298.256 -58.3864 223.707C-4.52648 153.178 51.3379 84.3016 128.573 40.5976C208.379 -4.56144 298.322 -21.584 389.649 -29.8174C493.137 -39.1472 607.901 -66.4693 695.451 -10.5083Z" fill="#B2DFE2"/>
</g>
<defs>
<clipPath id="clip0">
<rect width="1440" height="900" fill="white"/>
</clipPath>
</defs>
</svg>
